<?xml version="1.0" encoding="utf-8"?>
<!-- Generator: Adobe Illustrator 24.2.0, SVG Export Plug-In . SVG Version: 6.00 Build 0)  -->
<svg version="1.1" id="Livello_1" xmlns="http://www.w3.org/2000/svg" xmlns:xlink="http://www.w3.org/1999/xlink" x="0px" y="0px"
	 viewBox="0 0 4379 1208.9" style="enable-background:new 0 0 4379 1208.9;" xml:space="preserve">
<style type="text/css">
	.st0{fill:#FFFFFF;}
	.st1{opacity:0.3;}
	.st2{fill:url(#SVGID_1_);}
	.st3{fill:url(#SVGID_2_);}
	.st4{fill:url(#SVGID_3_);}
	.st5{fill:url(#SVGID_4_);}
	.st6{fill:url(#SVGID_5_);}
	.st7{fill:#EF6830;}
	.st8{fill:url(#SVGID_6_);}
	.st9{fill:url(#SVGID_7_);}
	.st10{fill:url(#SVGID_8_);}
	.st11{fill:url(#SVGID_9_);}
	.st12{fill:url(#SVGID_10_);}
	.st13{fill:url(#SVGID_11_);}
	.st14{fill:url(#SVGID_12_);}
	.st15{opacity:0.2;fill:url(#SVGID_13_);enable-background:new    ;}
	.st16{opacity:0.2;fill:url(#SVGID_14_);enable-background:new    ;}
	.st17{opacity:0.2;fill:url(#SVGID_15_);enable-background:new    ;}
	.st18{opacity:0.2;fill:url(#SVGID_16_);enable-background:new    ;}
	.st19{opacity:0.2;fill:url(#SVGID_17_);enable-background:new    ;}
</style>
<g>
	<g id="Livello_1_1_">
		<g>
			<path class="st0" d="M382.3,195.9c-59.7,0-160,40.7-181.7,130.2V212.2H0v633.2h200.7V515.9c0-105.8,67.8-134.2,122-134.2
				c50.2,0,109.8,38,109.8,135.6v328.1h200.7V505C633.2,311.2,550.5,195.9,382.3,195.9z"/>
			<path class="st0" d="M1253.1,288.1c-43.4-58.3-120.7-92.2-197.9-92.2c-180.3,0-305.1,134.2-305.1,333.5
				c0,198,124.7,332.2,302.4,332.2c80,0,157.3-36.6,200.7-96.3v80h200.7V212.2h-200.7V288.1z M1101.2,675.9
				c-86.8,0-146.4-69.1-146.4-146.4c0-81.4,59.7-147.8,145.1-147.8c81.3,0,146.4,65.1,146.4,147.8
				C1246.3,606.7,1182.6,675.9,1101.2,675.9z"/>
			<path class="st0" d="M1994,195.9c-59.7,0-160,40.7-181.7,130.2V212.2h-200.7v633.2h200.7V515.9c0-105.8,67.8-134.2,122-134.2
				c50.2,0,109.8,38,109.8,135.6v328.1h200.7V505C2244.9,311.2,2162.2,195.9,1994,195.9z"/>
			<path class="st0" d="M3035,457.1c-1.1-5.7-2.4-11.3-3.8-16.9c-4.9-19.7-11.6-39-20.1-57.5c-1.5-3.3-3.1-6.6-4.7-9.9
				c-2.4-4.9-0.2-0.3-0.5-1c-0.2-0.3-0.4-0.7-0.6-1.2s-0.5-0.9-0.7-1.4c0,0-0.1-0.1-0.1-0.2c-4-7.9-8.4-15.6-13.1-23
				c-1.6-2.6-3.3-5.2-5-7.7c-12.3-18.5-26.6-35.7-42.6-51.2c-0.5-0.5-1.1-1-1.6-1.5c-15.6-14.9-32.6-28.1-50.8-39.5
				c-4.9-3.1-9.9-6-15-8.8c-6.9-3.9-13.9-7.4-21.1-10.7c-46.1-21.3-99-33-156.8-33c-201.4,0-343.5,142-343.5,335.8
				s142.1,335.8,343.5,335.8s343.5-142,343.5-335.8C3042.1,505.2,3039.7,481,3035,457.1z M2698.5,684.6
				c-87.8,0-147.2-63.3-147.2-155s59.4-155,147.2-155s147.2,63.3,147.2,155S2786.3,684.6,2698.5,684.6z"/>
			<path class="st0" d="M2997.1,350.7c0.6-2.4,1.2-4.9,1.9-7.4C2997.9,345.6,2997.3,348.1,2997.1,350.7z"/>
		</g>
		<g class="st1">
			
				<linearGradient id="SVGID_1_" gradientUnits="userSpaceOnUse" x1="248.6975" y1="859.2172" x2="501.2975" y2="-213.0429" gradientTransform="matrix(1 0 0 -1 0 1208.8954)">
				<stop  offset="4.000000e-02" style="stop-color:#FFFFFF"/>
				<stop  offset="0.42" style="stop-color:#000000"/>
			</linearGradient>
			<path class="st2" d="M383.5,195.9c-59.7,0-160,40.7-181.7,130.2V212.2H1.1v633.2h200.7V515.9c0-105.8,67.8-134.2,122-134.2
				c50.2,0,109.8,38,109.8,135.6v328.1h200.7V505C634.3,311.2,551.6,195.9,383.5,195.9z"/>
			
				<linearGradient id="SVGID_2_" gradientUnits="userSpaceOnUse" x1="1047.6807" y1="1047.446" x2="1300.2806" y2="-24.824" gradientTransform="matrix(1 0 0 -1 0 1208.8954)">
				<stop  offset="7.000000e-02" style="stop-color:#FFFFFF"/>
				<stop  offset="0.62" style="stop-color:#000000"/>
			</linearGradient>
			<path class="st3" d="M1254.2,288.1c-43.4-58.3-120.7-92.2-198-92.2c-180.3,0-305.1,134.2-305.1,333.5
				c0,198,124.7,332.2,302.4,332.2c80,0,157.3-36.6,200.7-96.3v80h200.7V212.2h-200.6V288.1z M1102.3,675.9
				c-86.8,0-146.4-69.1-146.4-146.4c0-81.4,59.7-147.8,145.1-147.8c81.3,0,146.4,65.1,146.4,147.8
				C1247.4,606.7,1183.7,675.9,1102.3,675.9z"/>
			
				<linearGradient id="SVGID_3_" gradientUnits="userSpaceOnUse" x1="1775.6414" y1="1218.9381" x2="2028.2416" y2="146.668" gradientTransform="matrix(1 0 0 -1 0 1208.8954)">
				<stop  offset="0.31" style="stop-color:#FFFFFF"/>
				<stop  offset="0.78" style="stop-color:#000000"/>
			</linearGradient>
			<path class="st4" d="M1995.2,195.9c-59.7,0-160,40.7-181.7,130.2V212.2h-200.7v633.2h200.7V515.9c0-105.8,67.8-134.2,122-134.2
				c50.2,0,109.8,38,109.8,135.6v328.1H2246V505C2246,311.2,2163.3,195.9,1995.2,195.9z"/>
			
				<linearGradient id="SVGID_4_" gradientUnits="userSpaceOnUse" x1="2530.5791" y1="1396.7798" x2="2783.179" y2="324.5198" gradientTransform="matrix(1 0 0 -1 0 1208.8954)">
				<stop  offset="0.49" style="stop-color:#FFFFFF"/>
				<stop  offset="0.93" style="stop-color:#000000"/>
			</linearGradient>
			<path class="st5" d="M3036.1,457.1c-1.1-5.7-2.4-11.3-3.8-16.9c-4.9-19.7-11.6-39-20.1-57.5c-1.5-3.3-3.1-6.6-4.7-9.9l-0.5-1
				c-0.2-0.3-0.4-0.7-0.6-1.2s-0.5-0.9-0.7-1.4c0,0-0.1-0.1-0.1-0.2c-4.1-7.9-8.4-15.6-13.1-23c-1.6-2.6-3.3-5.2-5-7.7
				c-12.3-18.5-26.6-35.7-42.6-51.2c-0.5-0.5-1.1-1-1.6-1.5c-15.6-14.9-32.6-28.1-50.8-39.5c-4.9-3.1-9.9-6-15.1-8.8
				c-6.9-3.9-13.9-7.4-21.1-10.7c-46.1-21.3-99-33-156.8-33c-201.4,0-343.5,142-343.5,335.8s142.1,335.8,343.5,335.8
				s343.5-142,343.5-335.8C3043.2,505.2,3040.8,481,3036.1,457.1z M2699.6,684.6c-87.8,0-147.2-63.3-147.2-155s59.4-155,147.2-155
				s147.2,63.3,147.2,155S2787.4,684.6,2699.6,684.6z"/>
			
				<linearGradient id="SVGID_5_" gradientUnits="userSpaceOnUse" x1="2855.1484" y1="1473.2374" x2="3107.7485" y2="400.9774" gradientTransform="matrix(1 0 0 -1 0 1208.8954)">
				<stop  offset="0.49" style="stop-color:#FFFFFF"/>
				<stop  offset="0.91" style="stop-color:#000000"/>
			</linearGradient>
			<path class="st6" d="M2998.2,350.7c0.6-2.4,1.2-4.9,1.9-7.4C2999,345.6,2998.4,348.1,2998.2,350.7z"/>
		</g>
		<g>
			<path class="st0" d="M383.5,200.9c80.8,0,142.8,26.9,184.5,80c20.2,25.7,35.7,57.8,45.9,95.4c10.2,37.4,15.4,80.7,15.4,128.8
				v335.3H438.6V517.2c0-45.4-13-82.8-37.5-107.9c-20.4-20.8-48.2-32.6-77.3-32.7c-33,0-63,10.2-84.6,28.7
				c-28.2,24.1-42.4,61.3-42.4,110.6v324.5H6.1V217.2h190.7v108.9c0,2.5,1.9,4.7,4.4,5c0.2,0,0.4,0,0.6,0c2.3,0,4.3-1.6,4.9-3.8
				c11.9-48.9,47-79,74.3-95.5C312.3,212.7,351.6,200.9,383.5,200.9 M383.5,195.9c-59.7,0-160,40.7-181.7,130.2V212.2H1.1v633.2
				h200.7V515.9c0-105.8,67.8-134.2,122-134.2c50.2,0,109.8,38,109.8,135.6v328.1h200.7V505C634.3,311.2,551.6,195.9,383.5,195.9
				L383.5,195.9z"/>
			<path class="st0" d="M1056.2,200.9c37.8,0,75.2,8.1,109.6,23.8c34.7,15.9,63.8,38.8,84.3,66.4c1.7,2.2,4.8,2.7,7,1
				c1.3-0.9,2-2.4,2-4v-70.9h190.7v623.2h-190.7v-75c0-2.2-1.4-4.1-3.4-4.8c-0.5-0.2-1-0.3-1.6-0.2c-1.6,0-3.1,0.8-4,2.1
				c-42.3,58.1-117.6,94.2-196.6,94.2c-43,0-83.5-8-120.2-23.7c-35.7-15.2-67.7-37.9-93.9-66.5c-26.5-28.9-47.1-63.7-61.3-103.2
				c-14.6-40.7-22-85.7-22-133.7c0-48.4,7.4-93.6,22-134.5c14.2-39.7,34.9-74.6,61.6-103.6c26.4-28.8,58.7-51.5,94.7-66.7
				C971.6,208.9,1012.5,201,1056.2,200.9 M1102.3,681c40.2,0,78.1-16.2,106.6-45.8c13.5-13.9,24.3-30.3,31.8-48.3
				c7.6-18.2,11.6-37.7,11.6-57.4c0-41.3-15.7-79.8-44.2-108.4c-28.4-28.6-67-44.6-107.3-44.4c-42.1,0-80.5,16-108.2,44.9
				c-27,28.3-41.9,66.6-41.9,107.9c0,19.6,3.7,39.1,11,57.4c7.1,17.9,17.7,34.3,31,48.3C1021.1,664.7,1060,681,1102.3,681
				 M1056.2,196c-180.3,0-305.1,134.2-305.1,333.5c0,198,124.7,332.2,302.4,332.2c80,0,157.3-36.6,200.7-96.3v80h200.7V212.2h-200.6
				v75.9C1210.8,229.8,1133.5,195.9,1056.2,196L1056.2,196z M1102.3,676c-86.8,0-146.4-69.1-146.4-146.4
				c0-81.4,59.7-147.8,145.1-147.8c81.3,0,146.4,65.1,146.4,147.8C1247.3,606.8,1183.6,676,1102.3,676z"/>
			<path class="st0" d="M1995.2,200.9c80.8,0,142.8,26.9,184.5,80c20.2,25.7,35.7,57.8,45.9,95.4c10.2,37.4,15.4,80.7,15.4,128.8
				v335.3h-190.7V517.2c0-45.4-13-82.8-37.5-107.9c-20.4-20.8-48.2-32.6-77.3-32.7c-33,0-63,10.2-84.6,28.7
				c-28.1,24.1-42.4,61.3-42.4,110.6v324.5h-190.7V217.2h190.7v108.9c0,2.5,1.9,4.7,4.4,5c0.2,0,0.4,0,0.6,0c2.3,0,4.3-1.6,4.9-3.8
				c11.9-48.9,47-79,74.3-95.5C1924.1,212.7,1963.3,200.9,1995.2,200.9 M1995.2,195.9c-59.7,0-160,40.7-181.7,130.2V212.2h-200.7
				v633.2h200.7V515.9c0-105.8,67.8-134.2,122-134.2c50.2,0,109.8,38,109.8,135.6v328.1H2246V505
				C2246,311.2,2163.3,195.9,1995.2,195.9L1995.2,195.9z"/>
			<path class="st0" d="M2699.6,198.8c55.9,0,108,10.9,154.7,32.6c7.2,3.3,14.2,6.8,20.8,10.5h0.1c4.5,2.4,9.2,5.2,14.8,8.6
				c17.9,11.2,34.7,24.2,50,38.8l0.2,0.2c0.5,0.4,0.9,0.8,1.4,1.3h0.1c15.7,15.2,29.8,32.1,41.9,50.3l0.1,0.1
				c1.8,2.7,3.6,5.4,4.9,7.6c4.6,7.4,8.9,14.9,12.8,22.3c0.1,0.2,0.1,0.3,0.2,0.5c0.2,0.4,0.4,0.7,0.5,1l0.1,0.2
				c0.2,0.4,0.3,0.7,0.5,0.9l0.1,0.3l0.1,0.1c0.3,0.5,0.4,0.8,0.4,0.8c1.6,3.2,3.1,6.5,4.6,9.8c8.3,18.2,15,37.2,19.8,56.7
				c1.5,6.1,2.7,11.5,3.7,16.6l0,0c4.6,23.5,6.9,47.5,6.9,71.4c0,47-8.4,91.5-25,132.3c-15.8,39.3-39.6,74.9-69.7,104.7
				c-30.6,30-66.9,53.5-106.8,69c-42.1,16.5-88.1,24.9-136.9,24.9s-94.8-8.4-136.8-24.9c-40-15.5-76.4-38.9-107-68.9
				c-30.2-29.7-53.9-65.4-69.7-104.7c-16.6-40.8-25-85.4-25-132.3s8.4-91.5,25-132.3c15.8-39.3,39.6-74.9,69.7-104.6
				c30.6-30,67-53.4,107-68.9C2604.9,207.2,2650.9,198.8,2699.6,198.8 M2699.6,689.5c22.2,0,43.1-3.9,62-11.7
				c18.2-7.4,34.7-18.7,48.2-33c13.7-14.6,24.3-31.9,31.1-50.7c7.3-19.7,11-41.5,11-64.6s-3.7-44.9-11-64.6
				c-6.8-18.8-17.4-36.1-31.1-50.7c-13.5-14.3-30-25.6-48.2-33c-18.9-7.8-39.7-11.7-62-11.7s-43.1,3.9-61.9,11.7
				c-18.2,7.4-34.7,18.7-48.2,33c-13.7,14.6-24.3,31.8-31.1,50.7c-7.3,19.7-11,41.5-11,64.6s3.7,44.9,11,64.6
				c6.8,18.8,17.4,36.1,31.1,50.7c13.5,14.3,30,25.6,48.2,33C2656.6,685.6,2677.4,689.5,2699.6,689.5 M2699.6,193.8
				c-201.4,0-343.5,142-343.5,335.8s142.1,335.8,343.5,335.8s343.5-142,343.5-335.8c0.1-24.3-2.3-48.6-7-72.4
				c-1.1-5.7-2.4-11.3-3.8-16.9c-4.9-19.7-11.6-39-20.1-57.5c-1.5-3.4-3.1-6.7-4.7-9.9c0,0-0.2-0.3-0.5-1c-0.2-0.3-0.4-0.7-0.6-1.2
				s-0.4-0.9-0.7-1.4c0,0-0.1-0.1-0.1-0.2c-4.1-7.9-8.4-15.6-13.1-23c-1.6-2.6-3.3-5.2-5-7.7c-12.3-18.5-26.6-35.7-42.6-51.2
				c-0.5-0.5-1.1-1-1.6-1.5c-15.6-14.9-32.6-28.1-50.8-39.5c-4.9-3.1-9.9-6-15.1-8.8c-6.9-3.9-13.9-7.4-21.1-10.7
				C2810.4,205.4,2757.4,193.7,2699.6,193.8L2699.6,193.8z M2699.6,684.5c-87.8,0-147.2-63.3-147.2-155s59.4-155,147.2-155
				s147.2,63.3,147.2,155S2787.4,684.5,2699.6,684.5z"/>
			<path class="st0" d="M3000.1,343.3L3000.1,343.3z M3000.1,343.3c-1.1,2.3-1.7,4.8-1.9,7.4
				C2998.8,348.3,2999.4,345.8,3000.1,343.3z"/>
		</g>
		<g>
			<rect x="19.5" y="1057.9" class="st7" width="41.5" height="147.9"/>
			<rect x="19.5" y="991.8" class="st7" width="41.5" height="40.1"/>
			<rect x="189.3" y="1098.8" class="st7" width="123" height="40.5"/>
			<polygon class="st7" points="389.8,1008 456.2,1008 456.2,1205.8 504.8,1205.8 504.8,1008 571.1,1008 571.1,965 389.8,965 			"/>
			<polygon class="st7" points="730.9,1107.9 820.8,1107.9 820.8,1064.2 730.9,1064.2 730.9,1006.9 833.3,1006.9 833.3,963.9 
				682.4,963.9 682.4,1204.7 836.5,1204.7 836.5,1161.7 730.9,1161.7 			"/>
			<path class="st7" d="M1062.2,1005.5c25.5,0,45.8,11.9,59.4,31.1l37-26.9c-21.7-30.4-57.3-50-98.2-50
				c-68.2,0-122.3,56.6-122.3,124.4c0,68.5,54.2,124.8,122.3,124.8c40.9,0,76.5-19.6,98.2-50l-37-26.9
				c-13.6,19.2-33.9,31.1-59.8,31.1c-43.7,0-75.1-36-75.1-79S1018.5,1005.5,1062.2,1005.5z"/>
			<polygon class="st7" points="1413,963.9 1413,1063.2 1323.2,1063.2 1323.2,963.9 1274.6,963.9 1274.6,1204.7 1323.2,1204.7 
				1323.2,1106.9 1413,1106.9 1413,1204.7 1461.6,1204.7 1461.6,963.9 			"/>
		</g>
		<g class="st1">
			
				<linearGradient id="SVGID_6_" gradientUnits="userSpaceOnUse" x1="44.8125" y1="244.7677" x2="34.4525" y2="-221.2823" gradientTransform="matrix(1 0 0 -1 0 1208.8954)">
				<stop  offset="4.000000e-02" style="stop-color:#FFFFFF"/>
				<stop  offset="0.64" style="stop-color:#000000"/>
			</linearGradient>
			<rect x="20.3" y="1057.9" class="st8" width="41.5" height="147.9"/>
			
				<linearGradient id="SVGID_7_" gradientUnits="userSpaceOnUse" x1="42.1468" y1="244.8277" x2="31.7867" y2="-221.2222" gradientTransform="matrix(1 0 0 -1 0 1208.8954)">
				<stop  offset="4.000000e-02" style="stop-color:#FFFFFF"/>
				<stop  offset="0.42" style="stop-color:#000000"/>
			</linearGradient>
			<rect x="20.3" y="991.8" class="st9" width="41.5" height="40.1"/>
			
				<linearGradient id="SVGID_8_" gradientUnits="userSpaceOnUse" x1="254.9149" y1="240.0977" x2="244.5549" y2="-225.9521" gradientTransform="matrix(1 0 0 -1 0 1208.8954)">
				<stop  offset="4.000000e-02" style="stop-color:#FFFFFF"/>
				<stop  offset="0.67" style="stop-color:#000000"/>
			</linearGradient>
			<rect x="190.1" y="1098.8" class="st10" width="123" height="40.5"/>
			
				<linearGradient id="SVGID_9_" gradientUnits="userSpaceOnUse" x1="481.5411" y1="235.0678" x2="471.1812" y2="-230.9923" gradientTransform="matrix(1 0 0 -1 0 1208.8954)">
				<stop  offset="4.000000e-02" style="stop-color:#FFFFFF"/>
				<stop  offset="0.47" style="stop-color:#000000"/>
			</linearGradient>
			<polygon class="st11" points="390.6,1008 457,1008 457,1205.8 505.5,1205.8 505.5,1008 572,1008 572,965 390.6,965 			"/>
			
				<linearGradient id="SVGID_10_" gradientUnits="userSpaceOnUse" x1="762.5349" y1="228.8177" x2="752.1848" y2="-237.2323" gradientTransform="matrix(1 0 0 -1 0 1208.8954)">
				<stop  offset="4.000000e-02" style="stop-color:#FFFFFF"/>
				<stop  offset="0.42" style="stop-color:#000000"/>
			</linearGradient>
			<polygon class="st12" points="731.7,1107.9 821.6,1107.9 821.6,1064.2 731.7,1064.2 731.7,1006.9 834.1,1006.9 834.1,963.9 
				683.2,963.9 683.2,1204.7 837.3,1204.7 837.3,1161.7 731.7,1161.7 			"/>
			
				<linearGradient id="SVGID_11_" gradientUnits="userSpaceOnUse" x1="1052.0848" y1="222.3887" x2="1041.7249" y2="-243.6714" gradientTransform="matrix(1 0 0 -1 0 1208.8954)">
				<stop  offset="4.000000e-02" style="stop-color:#FFFFFF"/>
				<stop  offset="0.42" style="stop-color:#000000"/>
			</linearGradient>
			<path class="st13" d="M1062.9,1005.5c25.5,0,45.8,11.9,59.4,31.1l37-26.9c-21.7-30.4-57.3-50-98.2-50
				c-68.2,0-122.3,56.6-122.3,124.4c0,68.5,54.2,124.8,122.3,124.8c40.9,0,76.5-19.6,98.2-50l-37-26.9
				c-13.6,19.2-33.9,31.1-59.8,31.1c-43.7,0-75.1-36-75.1-79S1019.3,1005.5,1062.9,1005.5z"/>
			
				<linearGradient id="SVGID_12_" gradientUnits="userSpaceOnUse" x1="1370.9315" y1="215.2978" x2="1360.5715" y2="-250.7523" gradientTransform="matrix(1 0 0 -1 0 1208.8954)">
				<stop  offset="4.000000e-02" style="stop-color:#FFFFFF"/>
				<stop  offset="0.42" style="stop-color:#000000"/>
			</linearGradient>
			<polygon class="st14" points="1413.8,963.9 1413.8,1063.2 1324,1063.2 1324,963.9 1275.4,963.9 1275.4,1204.7 1324,1204.7 
				1324,1106.9 1413.8,1106.9 1413.8,1204.7 1462.4,1204.7 1462.4,963.9 			"/>
		</g>
		<g>
			<path class="st7" d="M60.8,1058.9v145.9H21.3v-145.9H60.8 M61.8,1057.9H20.3v147.9h41.5V1057.9z"/>
			<path class="st7" d="M60.8,992.8v38.1H21.3v-38.1H60.8 M61.8,991.8H20.3v40.1h41.5V991.8z"/>
			<path class="st7" d="M312.1,1099.8v38.5h-121v-38.5H312.1 M313.1,1098.8h-123v40.5h123V1098.8z"/>
			<path class="st7" d="M571,966v41h-66.4v197.8H458V1007h-66.4v-41H571 M572,965H390.6v43H457v197.8h48.6V1008H572L572,965L572,965
				z"/>
			<path class="st7" d="M833.1,964.9v41H730.7v59.3h89.8v41.7h-89.8v55.8h105.6v41H684.2V964.9H833.1 M834.2,963.9h-151v240.8h154.1
				v-43H731.7v-53.8h89.8v-43.7h-89.8v-57.3h102.4L834.2,963.9L834.2,963.9z"/>
			<path class="st7" d="M1061.2,960.7c19.4-0.1,38.6,4.5,55.8,13.5c16.2,8.4,30.2,20.5,41,35.3l-35.4,25.7
				c-14.6-20.1-35.2-30.7-59.6-30.7c-20.8-0.2-40.7,8.4-54.9,23.5c-13.9,14.9-21.6,34.8-21.6,56.1s7.6,41.4,21.4,56.3
				c14.1,15.2,33.9,23.8,54.7,23.7c24.7,0,45.4-10.6,60-30.7l35.4,25.7c-10.8,14.8-24.8,26.8-41,35.3
				c-47.2,24.4-104.7,15.1-141.8-22.9c-22.8-23.4-35.5-54.7-35.3-87.4C939.9,1016.1,994.3,960.7,1061.2,960.7 M1061.2,959.7
				c-68.2,0-122.3,56.6-122.3,124.4c0,68.5,54.2,124.8,122.3,124.8c40.9,0,76.5-19.6,98.2-50l-37-26.9
				c-13.6,19.2-33.9,31.1-59.8,31.1c-43.7,0-75.1-36-75.1-79s31.8-78.6,75.5-78.6c25.5,0,45.8,11.9,59.4,31.1l37-26.9
				C1137.7,979.2,1102.1,959.6,1061.2,959.7L1061.2,959.7z"/>
			<path class="st7" d="M1461.4,964.9v238.8h-46.6v-97.9H1323v97.9h-46.6V964.9h46.6v99.3h91.8v-99.3H1461.4 M1462.4,963.9h-48.6
				v99.3H1324v-99.3h-48.6v240.8h48.6v-97.9h89.8v97.9h48.6V963.9z"/>
		</g>
		<g>
			<g>
				<path class="st7" d="M4134,465.4c138.2,7,251.7-106.5,244.7-244.7c-6-118.3-102.1-214.4-220.4-220.4
					c-138.2-7-251.7,106.5-244.7,244.7C3919.6,363.3,4015.7,459.4,4134,465.4z"/>
				<path class="st7" d="M3549.1,610.6c-138.2-7-251.7,106.5-244.7,244.7c6,118.3,102.1,214.4,220.4,220.4
					c138.2,7,251.7-106.5,244.7-244.7C3763.5,712.7,3667.4,616.6,3549.1,610.6z"/>
				<path class="st7" d="M4146.1,609.6c-201.3,0-365.8-157.9-376.2-356.6c-0.4-6.7-0.5-13.4-0.5-20.1c0-6.8,0.2-13.5,0.5-20.1
					c-10.4-121.3-113.8-216-238.5-212.6S3305.6,106.9,3305,231.7c-0.6,128.7,103.1,233.3,231.5,234l0,0
					c206.9,0,374.8,166.7,376.8,373.1c1.2,124.7,96.7,230.1,221.2,236.2c133.9,6.6,244.6-100.1,244.6-232.6
					C4379,713.9,4274.7,609.6,4146.1,609.6z"/>
			</g>
			<g>
				
					<radialGradient id="SVGID_13_" cx="3929.3699" cy="1284.6278" r="667.76" gradientTransform="matrix(1 0 0 -1 0 1208.8954)" gradientUnits="userSpaceOnUse">
					<stop  offset="0.28" style="stop-color:#FFFFFF"/>
					<stop  offset="0.38" style="stop-color:#FCFCFC"/>
					<stop  offset="0.45" style="stop-color:#F2F2F2"/>
					<stop  offset="0.52" style="stop-color:#E2E2E2"/>
					<stop  offset="0.58" style="stop-color:#CBCBCB"/>
					<stop  offset="0.63" style="stop-color:#AEAEAE"/>
					<stop  offset="0.69" style="stop-color:#8A8A8A"/>
					<stop  offset="0.74" style="stop-color:#5F5F5F"/>
					<stop  offset="0.79" style="stop-color:#2E2E2E"/>
					<stop  offset="0.83" style="stop-color:#000000"/>
				</radialGradient>
				<path class="st15" d="M4134,465.4c138.2,7,251.7-106.5,244.7-244.7c-6-118.3-102.1-214.4-220.4-220.4
					c-138.2-7-251.7,106.5-244.7,244.7C3919.6,363.3,4015.7,459.4,4134,465.4z"/>
				
					<radialGradient id="SVGID_14_" cx="3320.2" cy="674.3178" r="667.76" gradientTransform="matrix(1 0 0 -1 0 1208.8954)" gradientUnits="userSpaceOnUse">
					<stop  offset="0.28" style="stop-color:#FFFFFF"/>
					<stop  offset="0.38" style="stop-color:#FCFCFC"/>
					<stop  offset="0.45" style="stop-color:#F2F2F2"/>
					<stop  offset="0.52" style="stop-color:#E2E2E2"/>
					<stop  offset="0.58" style="stop-color:#CBCBCB"/>
					<stop  offset="0.63" style="stop-color:#AEAEAE"/>
					<stop  offset="0.69" style="stop-color:#8A8A8A"/>
					<stop  offset="0.74" style="stop-color:#5F5F5F"/>
					<stop  offset="0.79" style="stop-color:#2E2E2E"/>
					<stop  offset="0.83" style="stop-color:#000000"/>
				</radialGradient>
				<path class="st16" d="M3524.8,1075.7c138.2,7,251.7-106.5,244.7-244.7c-6-118.3-102.1-214.4-220.4-220.4
					c-138.2-7-251.7,106.5-244.7,244.7C3310.4,973.6,3406.5,1069.7,3524.8,1075.7z"/>
				
					<radialGradient id="SVGID_15_" cx="3929.3699" cy="674.3178" r="667.76" gradientTransform="matrix(1 0 0 -1 0 1208.8954)" gradientUnits="userSpaceOnUse">
					<stop  offset="0.28" style="stop-color:#FFFFFF"/>
					<stop  offset="0.38" style="stop-color:#FCFCFC"/>
					<stop  offset="0.45" style="stop-color:#F2F2F2"/>
					<stop  offset="0.52" style="stop-color:#E2E2E2"/>
					<stop  offset="0.58" style="stop-color:#CBCBCB"/>
					<stop  offset="0.63" style="stop-color:#AEAEAE"/>
					<stop  offset="0.69" style="stop-color:#8A8A8A"/>
					<stop  offset="0.74" style="stop-color:#5F5F5F"/>
					<stop  offset="0.79" style="stop-color:#2E2E2E"/>
					<stop  offset="0.83" style="stop-color:#000000"/>
				</radialGradient>
				<path class="st17" d="M4134,1075.7c138.2,7,251.7-106.5,244.7-244.7c-6-118.3-102.1-214.4-220.4-220.4
					c-138.2-7-251.7,106.5-244.7,244.7C3919.6,973.6,4015.7,1069.7,4134,1075.7z"/>
				
					<radialGradient id="SVGID_16_" cx="3320.2" cy="1284.6278" r="667.76" gradientTransform="matrix(1 0 0 -1 0 1208.8954)" gradientUnits="userSpaceOnUse">
					<stop  offset="0.28" style="stop-color:#FFFFFF"/>
					<stop  offset="0.38" style="stop-color:#FCFCFC"/>
					<stop  offset="0.45" style="stop-color:#F2F2F2"/>
					<stop  offset="0.52" style="stop-color:#E2E2E2"/>
					<stop  offset="0.58" style="stop-color:#CBCBCB"/>
					<stop  offset="0.63" style="stop-color:#AEAEAE"/>
					<stop  offset="0.69" style="stop-color:#8A8A8A"/>
					<stop  offset="0.74" style="stop-color:#5F5F5F"/>
					<stop  offset="0.79" style="stop-color:#2E2E2E"/>
					<stop  offset="0.83" style="stop-color:#000000"/>
				</radialGradient>
				<path class="st18" d="M3524.8,465.4c138.2,7,251.7-106.5,244.7-244.7c-6-118.3-102.1-214.4-220.4-220.4
					c-138.2-7-251.7,106.5-244.7,244.7C3310.4,363.3,3406.5,459.4,3524.8,465.4z"/>
				
					<radialGradient id="SVGID_17_" cx="3917.5701" cy="571.5578" r="304.61" fx="3899.1248" fy="571.5578" gradientTransform="matrix(1 0 0 -1 0 1208.8954)" gradientUnits="userSpaceOnUse">
					<stop  offset="0" style="stop-color:#FFFFFF"/>
					<stop  offset="0.18" style="stop-color:#FCFCFC"/>
					<stop  offset="0.31" style="stop-color:#F2F2F2"/>
					<stop  offset="0.43" style="stop-color:#E2E2E2"/>
					<stop  offset="0.54" style="stop-color:#CBCBCB"/>
					<stop  offset="0.64" style="stop-color:#AEAEAE"/>
					<stop  offset="0.74" style="stop-color:#8A8A8A"/>
					<stop  offset="0.83" style="stop-color:#5F5F5F"/>
					<stop  offset="0.92" style="stop-color:#2E2E2E"/>
					<stop  offset="1" style="stop-color:#000000"/>
				</radialGradient>
				<path class="st19" d="M4158.2,610.7c-133.4-6.8-243.9,98.9-245,230.6c0-0.8,0-1.6,0-2.3c-2-206.5-169.8-372.9-376.3-373.1
					c124.8,0,226.6-98.1,232.6-221.5c0.1,2.9,0.2,5.8,0.4,8.7c10.4,198.7,174.9,356.6,376.2,356.6L4158.2,610.7z"/>
			</g>
		</g>
	</g>
</g>
</svg>
