<?xml version="1.0" encoding="utf-8"?>
<!-- Generator: Adobe Illustrator 24.2.0, SVG Export Plug-In . SVG Version: 6.00 Build 0)  -->
<svg version="1.1" id="Livello_1" xmlns="http://www.w3.org/2000/svg" xmlns:xlink="http://www.w3.org/1999/xlink" x="0px" y="0px"
	 viewBox="0 0 1003 275.6" style="enable-background:new 0 0 1003 275.6;" xml:space="preserve">
<style type="text/css">
	.st0{fill:#2B2C2B;}
	.st1{fill:url(#SVGID_1_);}
	.st2{fill:url(#SVGID_2_);}
	.st3{fill:url(#SVGID_3_);}
	.st4{fill:url(#SVGID_4_);}
	.st5{fill:url(#SVGID_5_);}
	.st6{fill:url(#SVGID_6_);}
	.st7{fill:url(#SVGID_7_);}
	.st8{fill:url(#SVGID_8_);}
	.st9{fill:#F06A32;}
	.st10{opacity:0.2;fill:url(#SVGID_9_);enable-background:new    ;}
	.st11{opacity:0.1;}
	.st12{fill:url(#SVGID_10_);}
	.st13{fill:url(#SVGID_11_);}
	.st14{fill:url(#SVGID_12_);}
	.st15{fill:url(#SVGID_13_);}
	.st16{fill:url(#SVGID_14_);}
	.st17{fill:url(#SVGID_15_);}
	.st18{fill:#EF6830;}
	.st19{opacity:0.2;fill:url(#SVGID_16_);enable-background:new    ;}
	.st20{opacity:0.2;fill:url(#SVGID_17_);enable-background:new    ;}
	.st21{opacity:0.2;fill:url(#SVGID_18_);enable-background:new    ;}
	.st22{opacity:0.2;fill:url(#SVGID_19_);enable-background:new    ;}
	.st23{opacity:0.2;fill:url(#SVGID_20_);enable-background:new    ;}
</style>
<path class="st0" d="M87.7,42.7C74,42.7,51,52,46,72.6V46.5H0v145.2h46v-75.5c0-24.3,15.5-30.8,28-30.8c11.5,0,25.2,8.7,25.2,31.1
	v75.2h46v-78C145.2,69.1,126.3,42.7,87.7,42.7z"/>
<path class="st0" d="M287.3,63.8c-9.9-13.4-27.7-21.1-45.4-21.1c-41.3,0-69.9,30.8-69.9,76.5c0,45.4,28.6,76.2,69.3,76.2
	c18.3,0,36.1-8.4,46-22.1v18.3h46V46.4h-46V63.8z M252.5,152.7c-19.9,0-33.6-15.9-33.6-33.6c0-18.7,13.7-33.9,33.3-33.9
	c18.7,0,33.6,14.9,33.6,33.9C285.8,136.9,271.2,152.7,252.5,152.7L252.5,152.7z"/>
<path class="st0" d="M457.2,42.7c-13.7,0-36.7,9.3-41.7,29.8V46.4h-46v145.2h46v-75.5c0-24.3,15.5-30.8,28-30.8
	c11.5,0,25.2,8.7,25.2,31.1v75.2h46v-78C514.7,69.1,495.8,42.7,457.2,42.7z"/>
<path class="st0" d="M695.9,102.6c-0.2-1.3-0.5-2.6-0.9-3.9c-1.1-4.5-2.7-8.9-4.6-13.2c-0.4-0.8-0.7-1.5-1.1-2.3
	c-0.6-1.1,0-0.1-0.1-0.2c0-0.1-0.1-0.2-0.1-0.3s-0.1-0.2-0.2-0.3l0,0c-0.9-1.8-1.9-3.6-3-5.3c-0.4-0.6-0.7-1.2-1.1-1.8
	c-2.8-4.3-6.1-8.2-9.8-11.7c-0.1-0.1-0.2-0.2-0.4-0.4c-3.6-3.4-7.5-6.4-11.7-9c-1.1-0.7-2.3-1.4-3.5-2c-1.6-0.9-3.2-1.7-4.9-2.4
	c-10.6-4.9-22.7-7.6-36-7.6c-46.2,0-78.8,32.6-78.8,77s32.6,77,78.8,77s78.8-32.6,78.8-77C697.5,113.6,697,108,695.9,102.6z
	 M618.7,154.7c-20.1,0-33.8-14.5-33.8-35.5s13.6-35.5,33.8-35.5c20.1,0,33.8,14.5,33.8,35.5S638.9,154.7,618.7,154.7z"/>
<linearGradient id="SVGID_1_" gradientUnits="userSpaceOnUse" x1="72.9" y1="199.1007" x2="72.9" y2="47.8916" gradientTransform="matrix(1 0 0 1 0 2)">
	<stop  offset="0" style="stop-color:#FFFFFF;stop-opacity:0"/>
	<stop  offset="0.92" style="stop-color:#020202"/>
</linearGradient>
<path class="st1" d="M88,42.7c-13.7,0-36.7,9.3-41.7,29.8V46.4h-46v145.2h46v-75.5c0-24.3,15.5-30.8,28-30.8
	c11.5,0,25.2,8.7,25.2,31.1v75.2h46v-78C145.5,69.1,126.5,42.7,88,42.7z"/>
<linearGradient id="SVGID_2_" gradientUnits="userSpaceOnUse" x1="252.95" y1="199.1007" x2="252.95" y2="47.8916" gradientTransform="matrix(1 0 0 1 0 2)">
	<stop  offset="0.11" style="stop-color:#FFFFFF;stop-opacity:0"/>
	<stop  offset="0.92" style="stop-color:#020202"/>
</linearGradient>
<path class="st2" d="M287.6,63.8c-9.9-13.4-27.7-21.1-45.4-21.1c-41.3,0-69.9,30.8-69.9,76.5c0,45.4,28.6,76.2,69.3,76.2
	c18.3,0,36.1-8.4,46-22.1v18.3h46V46.4h-46V63.8z M252.8,152.7c-19.9,0-33.6-15.9-33.6-33.6c0-18.7,13.7-33.9,33.3-33.9
	c18.7,0,33.6,14.9,33.6,33.9C286.1,136.9,271.4,152.7,252.8,152.7z"/>
<linearGradient id="SVGID_3_" gradientUnits="userSpaceOnUse" x1="442.4" y1="199.1007" x2="442.4" y2="47.8916" gradientTransform="matrix(1 0 0 1 0 2)">
	<stop  offset="0.11" style="stop-color:#FFFFFF;stop-opacity:0"/>
	<stop  offset="0.92" style="stop-color:#020202"/>
</linearGradient>
<path class="st3" d="M457.5,42.7c-13.7,0-36.7,9.3-41.7,29.8V46.4h-46v145.2h46v-75.5c0-24.3,15.5-30.8,28-30.8
	c11.5,0,25.2,8.7,25.2,31.1v75.2h46v-78C515,69.1,496,42.7,457.5,42.7z"/>
<linearGradient id="SVGID_4_" gradientUnits="userSpaceOnUse" x1="618.7385" y1="199.1007" x2="618.7385" y2="47.8916" gradientTransform="matrix(1 0 0 1 0 2)">
	<stop  offset="0.11" style="stop-color:#FFFFFF;stop-opacity:0"/>
	<stop  offset="0.92" style="stop-color:#020202"/>
</linearGradient>
<path class="st4" d="M696.1,102.6c-0.2-1.3-0.5-2.6-0.9-3.9c-1.1-4.5-2.7-8.9-4.6-13.2c-0.3-0.8-0.7-1.5-1.1-2.3l-0.1-0.2
	c0-0.1-0.1-0.2-0.1-0.3s-0.1-0.2-0.2-0.3l0,0c-0.9-1.8-1.9-3.6-3-5.3c-0.4-0.6-0.7-1.2-1.1-1.8c-2.8-4.3-6.1-8.2-9.8-11.7
	c-0.1-0.1-0.2-0.2-0.4-0.4c-3.6-3.4-7.5-6.4-11.7-9c-1.1-0.7-2.3-1.4-3.5-2c-1.6-0.9-3.2-1.7-4.9-2.4c-10.6-4.9-22.7-7.6-36-7.6
	c-46.2,0-78.8,32.6-78.8,77s32.6,77,78.8,77s78.8-32.6,78.8-77C697.8,113.6,697.2,108,696.1,102.6z M619,154.7
	c-20.1,0-33.8-14.5-33.8-35.5s13.6-35.5,33.8-35.5c20.1,0,33.8,14.5,33.8,35.5S639.1,154.7,619,154.7L619,154.7z"/>
<linearGradient id="SVGID_5_" gradientUnits="userSpaceOnUse" x1="72.9" y1="35.7654" x2="72.9" y2="142.3303" gradientTransform="matrix(1 0 0 1 0 2)">
	<stop  offset="0.11" style="stop-color:#FFFFFF;stop-opacity:0"/>
	<stop  offset="0.92" style="stop-color:#020202"/>
</linearGradient>
<path class="st5" d="M88,43.6c18.6,0,32.9,6.2,42.5,18.4c4.7,5.9,8.2,13.3,10.6,22c2.3,8.6,3.5,18.6,3.5,29.6v77.1h-44.2v-74.3
	c0-5.4-0.8-10.3-2.4-14.6c-1.4-3.9-3.5-7.2-6.2-10c-4.6-4.7-10.9-7.4-17.5-7.4c-3.3,0-6.7,0.5-9.9,1.4c-3.4,1-6.6,2.8-9.4,5.1
	c-3,2.6-5.3,5.9-6.9,9.8c-1.8,4.3-2.7,9.5-2.7,15.4v74.6H1.2V47.3h44.2v25.2c0,0.5,0.3,0.8,0.8,0.9h0.1c0.4,0,0.8-0.3,0.9-0.7
	C49.9,61.4,58,54.5,64.4,50.6c3.8-2.3,8-4.1,12.3-5.4C80.6,44.2,84.5,43.6,88,43.6 M88,42.7c-13.7,0-36.7,9.3-41.7,29.8V46.4h-46
	v145.2h46v-75.5c0-24.3,15.5-30.8,28-30.8c11.5,0,25.2,8.7,25.2,31.1v75.2h46v-78C145.5,69.1,126.5,42.7,88,42.7z"/>
<linearGradient id="SVGID_6_" gradientUnits="userSpaceOnUse" x1="252.95" y1="35.7654" x2="252.95" y2="142.3303" gradientTransform="matrix(1 0 0 1 0 2)">
	<stop  offset="0.11" style="stop-color:#FFFFFF;stop-opacity:0"/>
	<stop  offset="0.92" style="stop-color:#020202"/>
</linearGradient>
<path class="st6" d="M242.2,43.6c8.7,0,17.3,1.9,25.2,5.5c8,3.7,14.7,9,19.4,15.3c0.2,0.2,0.4,0.4,0.7,0.4c0.5,0,0.9-0.4,0.9-0.9
	V47.4h44.2v143.4h-44.2v-17.4c0-0.4-0.3-0.7-0.6-0.9c-0.1,0-0.2,0-0.3,0c-0.3,0-0.6,0.1-0.7,0.4c-4.8,6.6-11.5,12.1-19.5,15.9
	c-8,3.8-16.8,5.8-25.8,5.8c-9.9,0-19.2-1.8-27.7-5.4c-8.2-3.5-15.6-8.7-21.6-15.3c-6.1-6.7-10.8-14.7-14.1-23.7
	c-3.4-9.4-5.1-19.7-5.1-30.7c0-11.1,1.7-21.5,5.1-30.9c3.3-9.1,8-17.2,14.2-23.8c6.1-6.6,13.5-11.9,21.8-15.4
	C222.7,45.4,232.2,43.6,242.2,43.6 M252.8,153.6c9.1,0,17.8-3.7,24.3-10.4c3.1-3.2,5.5-6.9,7.2-11s2.6-8.6,2.6-13.1
	c0-9.4-3.6-18.2-10.1-24.7s-15.1-10.1-24.4-10.1c-4.7,0-9.4,0.9-13.8,2.7c-4.1,1.7-7.8,4.3-10.8,7.5c-6.1,6.4-9.5,15.2-9.5,24.6
	c0,4.5,0.8,8.9,2.5,13.1c1.6,4.1,4,7.8,7.1,11C234.3,149.9,243.2,153.6,252.8,153.6 M242.2,42.7c-41.3,0-69.9,30.8-69.9,76.5
	c0,45.4,28.6,76.2,69.3,76.2c18.3,0,36.1-8.4,46-22.1v18.3h46V46.4h-46v17.4C277.7,50.4,259.9,42.7,242.2,42.7L242.2,42.7z
	 M252.8,152.7c-19.9,0-33.6-15.9-33.6-33.6c0-18.7,13.7-33.9,33.3-33.9c18.7,0,33.6,14.9,33.6,33.9
	C286.1,136.9,271.4,152.7,252.8,152.7L252.8,152.7z"/>
<linearGradient id="SVGID_7_" gradientUnits="userSpaceOnUse" x1="442.4" y1="35.7654" x2="442.4" y2="142.3303" gradientTransform="matrix(1 0 0 1 0 2)">
	<stop  offset="0.11" style="stop-color:#FFFFFF;stop-opacity:0"/>
	<stop  offset="0.92" style="stop-color:#020202"/>
</linearGradient>
<path class="st7" d="M457.5,43.6c18.6,0,32.9,6.2,42.5,18.4c4.7,5.9,8.2,13.3,10.6,22c2.3,8.6,3.5,18.6,3.5,29.6v77.1h-44.2v-74.3
	c0-5.4-0.8-10.3-2.4-14.6c-1.4-3.9-3.5-7.2-6.2-10c-4.6-4.7-10.9-7.4-17.5-7.4c-3.3,0-6.7,0.5-9.9,1.4c-3.4,1-6.6,2.8-9.4,5.1
	c-3,2.6-5.3,5.9-6.9,9.8c-1.8,4.3-2.7,9.5-2.7,15.4v74.6h-44.2V47.3h44.2v25.2c0,0.5,0.3,0.8,0.8,0.9h0.1c0.4,0,0.8-0.3,0.9-0.7
	c2.7-11.3,10.8-18.2,17.2-22.1c3.8-2.3,8-4.1,12.3-5.4C450.1,44.2,454,43.6,457.5,43.6 M457.5,42.7c-13.7,0-36.7,9.3-41.7,29.8V46.4
	h-46v145.2h46v-75.5c0-24.3,15.5-30.8,28-30.8c11.5,0,25.2,8.7,25.2,31.1v75.2h46v-78C515,69.1,496,42.7,457.5,42.7z"/>
<linearGradient id="SVGID_8_" gradientUnits="userSpaceOnUse" x1="619" y1="35.7654" x2="619" y2="142.3303" gradientTransform="matrix(1 0 0 1 0 2)">
	<stop  offset="0.11" style="stop-color:#FFFFFF;stop-opacity:0"/>
	<stop  offset="0.92" style="stop-color:#020202"/>
</linearGradient>
<path class="st8" d="M619,43.1c12.9,0,24.8,2.5,35.6,7.5c1.7,0.8,3.3,1.6,4.8,2.4l0,0c1,0.6,2.1,1.2,3.4,2c4.1,2.6,8,5.6,11.5,8.9
	l0,0c0.1,0.1,0.2,0.2,0.3,0.3l0,0c3.6,3.5,6.8,7.4,9.6,11.6l0,0c0.4,0.6,0.8,1.3,1.1,1.7c1.1,1.7,2.1,3.4,2.9,5.1c0,0,0,0.1,0.1,0.1
	c0,0.1,0.1,0.2,0.1,0.2V83c0,0.1,0.1,0.2,0.1,0.2v0.1l0,0c0.1,0.1,0.1,0.2,0.1,0.2c0.4,0.7,0.7,1.5,1.1,2.3c1.9,4.2,3.4,8.6,4.5,13
	c0.4,1.4,0.6,2.6,0.9,3.8l0,0c1.1,5.4,1.6,10.9,1.6,16.4c0,10.8-1.9,21-5.7,30.4c-3.6,9-9.1,17.2-16,24.1
	c-7,6.8-15.2,12.2-24.6,15.9c-9.7,3.8-20.3,5.7-31.5,5.7s-21.8-1.9-31.5-5.7c-9.4-3.7-17.7-9-24.6-15.9c-6.9-6.8-12.4-15-16-24.1
	c-3.8-9.4-5.7-19.6-5.7-30.4s1.9-21,5.7-30.4c3.6-9,9.1-17.2,16-24.1c7-6.8,15.2-12.2,24.6-15.9C597.2,45,607.8,43.1,619,43.1
	 M619,155.6c5.1,0,9.8-0.9,14.1-2.7c4.1-1.7,7.9-4.2,11-7.5s5.5-7.3,7.1-11.5c1.7-4.5,2.5-9.5,2.5-14.7s-0.8-10.2-2.5-14.7
	c-1.5-4.3-4-8.2-7.1-11.5c-3.1-3.2-6.8-5.8-11-7.5c-4.3-1.8-9-2.7-14.1-2.7s-9.8,0.9-14.1,2.7c-4.1,1.7-7.9,4.2-11,7.5
	s-5.5,7.2-7.1,11.5c-1.7,4.5-2.5,9.4-2.5,14.7s0.8,10.2,2.5,14.7c1.5,4.3,4,8.2,7.1,11.5s6.8,5.8,11,7.5
	C609.2,154.7,613.9,155.6,619,155.6 M619,42.2c-46.2,0-78.8,32.6-78.8,77s32.6,77,78.8,77s78.8-32.6,78.8-77
	c0-5.6-0.5-11.1-1.6-16.6c-0.2-1.3-0.5-2.6-0.9-3.9c-1.1-4.5-2.7-8.9-4.6-13.2c-0.3-0.8-0.7-1.5-1.1-2.3l-0.1-0.2
	c0-0.1-0.1-0.2-0.1-0.3s-0.1-0.2-0.2-0.3l0,0c-0.9-1.8-1.9-3.6-3-5.3c-0.4-0.6-0.7-1.2-1.1-1.8c-2.8-4.3-6.1-8.2-9.8-11.7
	c-0.1-0.1-0.2-0.2-0.4-0.4c-3.6-3.4-7.5-6.4-11.7-9c-1.1-0.7-2.3-1.4-3.5-2c-1.6-0.9-3.2-1.7-4.9-2.4
	C644.4,44.9,632.2,42.2,619,42.2L619,42.2z M619,154.7c-20.1,0-33.8-14.5-33.8-35.5s13.6-35.5,33.8-35.5c20.1,0,33.8,14.5,33.8,35.5
	S639.1,154.7,619,154.7z"/>
<g>
	<rect x="5.4" y="240.9" class="st9" width="9.5" height="34"/>
	<rect x="5.4" y="225.7" class="st9" width="9.5" height="9.2"/>
	<rect x="44.5" y="250.3" class="st9" width="28.3" height="9.3"/>
	<polygon class="st9" points="90.5,229.4 105.8,229.4 105.8,274.9 117,274.9 117,229.4 132.2,229.4 132.2,219.5 90.5,219.5 	"/>
	<polygon class="st9" points="169,252.4 189.6,252.4 189.6,242.4 169,242.4 169,229.2 192.5,229.2 192.5,219.3 157.8,219.3 
		157.8,274.7 193.2,274.7 193.2,264.8 169,264.8 	"/>
	<path class="st9" d="M245.1,228.9c5.9,0,10.5,2.7,13.7,7.1l8.5-6.2c-5-7-13.2-11.5-22.6-11.5c-15.7,0-28.1,13-28.1,28.6
		c0,15.7,12.5,28.7,28.1,28.7c9.4,0,17.6-4.5,22.6-11.5l-8.5-6.2c-3.1,4.4-7.8,7.1-13.7,7.1c-10,0-17.3-8.3-17.3-18.2
		S235.1,228.9,245.1,228.9z"/>
	<polygon class="st9" points="325.8,219.3 325.8,242.1 305.1,242.1 305.1,219.3 293.9,219.3 293.9,274.7 305.1,274.7 305.1,252.2 
		325.8,252.2 325.8,274.7 336.9,274.7 336.9,219.3 	"/>
	
		<linearGradient id="SVGID_9_" gradientUnits="userSpaceOnUse" x1="10.5938" y1="217.3054" x2="8.2118" y2="324.4348" gradientTransform="matrix(1 0 0 1 0 2)">
		<stop  offset="4.000000e-02" style="stop-color:#FFFFFF"/>
		<stop  offset="0.42" style="stop-color:#020202"/>
	</linearGradient>
	<rect x="5.6" y="225.7" class="st10" width="9.5" height="9.2"/>
	<g class="st11">
		
			<linearGradient id="SVGID_10_" gradientUnits="userSpaceOnUse" x1="11.2065" y1="217.3198" x2="8.8264" y2="324.4491" gradientTransform="matrix(1 0 0 1 0 2)">
			<stop  offset="4.000000e-02" style="stop-color:#EF6830"/>
			<stop  offset="0.42" style="stop-color:#020202"/>
		</linearGradient>
		<rect x="5.6" y="240.9" class="st12" width="9.5" height="34"/>
		
			<linearGradient id="SVGID_11_" gradientUnits="userSpaceOnUse" x1="59.5171" y1="218.3927" x2="57.1369" y2="325.5222" gradientTransform="matrix(1 0 0 1 0 2)">
			<stop  offset="4.000000e-02" style="stop-color:#EF6830"/>
			<stop  offset="0.42" style="stop-color:#020202"/>
		</linearGradient>
		<rect x="44.6" y="250.3" class="st13" width="28.3" height="9.3"/>
		
			<linearGradient id="SVGID_12_" gradientUnits="userSpaceOnUse" x1="111.6138" y1="219.5497" x2="109.2336" y2="326.679" gradientTransform="matrix(1 0 0 1 0 2)">
			<stop  offset="4.000000e-02" style="stop-color:#EF6830"/>
			<stop  offset="0.42" style="stop-color:#020202"/>
		</linearGradient>
		<polygon class="st14" points="90.7,229.4 106,229.4 106,274.9 117.2,274.9 117.2,229.4 132.4,229.4 132.4,219.5 90.7,219.5 		"/>
		
			<linearGradient id="SVGID_13_" gradientUnits="userSpaceOnUse" x1="176.2332" y1="220.9871" x2="173.8513" y2="328.1164" gradientTransform="matrix(1 0 0 1 0 2)">
			<stop  offset="4.000000e-02" style="stop-color:#EF6830"/>
			<stop  offset="0.42" style="stop-color:#020202"/>
		</linearGradient>
		<polygon class="st15" points="169.1,252.4 189.8,252.4 189.8,242.4 169.1,242.4 169.1,229.2 192.7,229.2 192.7,219.3 158,219.3 
			158,274.7 193.4,274.7 193.4,264.8 169.1,264.8 		"/>
		
			<linearGradient id="SVGID_14_" gradientUnits="userSpaceOnUse" x1="242.8358" y1="222.4659" x2="240.4538" y2="329.5952" gradientTransform="matrix(1 0 0 1 0 2)">
			<stop  offset="4.000000e-02" style="stop-color:#EF6830"/>
			<stop  offset="0.42" style="stop-color:#020202"/>
		</linearGradient>
		<path class="st16" d="M245.3,228.9c5.9,0,10.5,2.7,13.7,7.1l8.5-6.2c-5-7-13.2-11.5-22.6-11.5c-15.7,0-28.1,13-28.1,28.6
			c0,15.7,12.5,28.7,28.1,28.7c9.4,0,17.6-4.5,22.6-11.5l-8.5-6.2c-3.1,4.4-7.8,7.1-13.7,7.1c-10,0-17.3-8.3-17.3-18.2
			C227.9,237.1,235.2,228.9,245.3,228.9z"/>
		
			<linearGradient id="SVGID_15_" gradientUnits="userSpaceOnUse" x1="316.0638" y1="224.0933" x2="313.6836" y2="331.2226" gradientTransform="matrix(1 0 0 1 0 2)">
			<stop  offset="4.000000e-02" style="stop-color:#EF6830"/>
			<stop  offset="0.42" style="stop-color:#020202"/>
		</linearGradient>
		<polygon class="st17" points="325.9,219.3 325.9,242.1 305.3,242.1 305.3,219.3 294.1,219.3 294.1,274.7 305.3,274.7 305.3,252.2 
			325.9,252.2 325.9,274.7 337.1,274.7 337.1,219.3 		"/>
	</g>
	<path class="st9" d="M15,241.1v33.6H5.8v-33.6H15 M15.2,240.9H5.7v34h9.5V240.9z"/>
	<path class="st9" d="M15,225.9v8.9H5.8v-8.9H15 M15.2,225.7H5.7v9.2h9.5V225.7z"/>
	<path class="st9" d="M72.7,250.5v9H44.8v-9H72.7 M72.9,250.3H44.6v9.3h28.3C72.9,259.6,72.9,250.3,72.9,250.3z"/>
	<path class="st9" d="M132.2,219.7v9.5h-15.3v45.5h-10.8v-45.5H90.8v-9.5H132.2 M132.4,219.5H90.7v9.9H106v45.5h11.2v-45.5h15.3
		L132.4,219.5L132.4,219.5z"/>
	<path class="st9" d="M192.5,219.5v9.5H169v13.5h20.6v9.7H169v12.7h24.3v9.5h-35.1v-55L192.5,219.5 M192.7,219.3H158v55.3h35.4v-9.8
		h-24.3v-12.4h20.7v-10h-20.6v-13.2h23.5V219.3z"/>
	<path class="st9" d="M244.9,218.5c4.5,0,8.9,1,12.9,3.1c3.7,2,7,4.7,9.5,8.2l-8.2,6c-1.5-2.1-3.5-3.9-5.8-5.1
		c-2.4-1.3-5.2-2-7.9-1.9c-4.8,0-9.3,1.9-12.6,5.4c-3.2,3.4-5,8-5,12.9s1.7,9.5,4.9,12.9c3.2,3.5,7.8,5.5,12.5,5.4
		c5.7,0,10.4-2.4,13.8-7.1l8.2,6c-2.5,3.4-5.7,6.2-9.5,8.2c-10.9,5.6-24.1,3.5-32.7-5.3c-10.9-11.2-10.9-29,0-40.1
		C230.4,221.5,237.4,218.5,244.9,218.5 M244.9,218.3c-15.7,0-28.1,13-28.1,28.6c0,15.7,12.5,28.7,28.1,28.7
		c9.4,0,17.6-4.5,22.6-11.5l-8.5-6.2c-3.1,4.4-7.8,7.1-13.7,7.1c-10,0-17.3-8.3-17.3-18.2s7.3-18.1,17.4-18.1
		c5.9,0,10.5,2.7,13.7,7.1l8.5-6.2C262.5,222.8,254.3,218.3,244.9,218.3L244.9,218.3z"/>
	<path class="st9" d="M336.9,219.5v55h-10.8V252h-21v22.5h-10.8v-55h10.8v22.8h21v-22.8H336.9 M337.1,219.3h-11.2v22.8h-20.6v-22.8
		h-11.2v55.3h11.2v-22.5h20.6v22.5h11.2V219.3z"/>
</g>
<g>
	<g>
		<g>
			<path class="st18" d="M947.1,106.2c31.5,1.6,57.4-24.3,55.8-55.8c-1.4-27-23.3-48.9-50.3-50.3c-31.5-1.6-57.4,24.3-55.8,55.8
				C898.2,83,920.1,104.9,947.1,106.2z"/>
			<path class="st18" d="M813.7,139.3c-31.5-1.6-57.4,24.3-55.8,55.8c1.4,27,23.3,48.9,50.3,50.3c31.5,1.6,57.4-24.3,55.8-55.8
				C862.6,162.6,840.7,140.7,813.7,139.3z"/>
			<path class="st18" d="M949.9,139.1c-45.9,0-83.4-36-85.8-81.3c-0.1-1.5-0.1-3.1-0.1-4.6s0-3.1,0.1-4.6
				c-2.4-27.7-25.9-49.3-54.4-48.5c-28.4,0.8-51.5,24.4-51.6,52.8c-0.1,29.3,23.5,53.2,52.8,53.4l0,0c47.2,0,85.4,38,85.9,85.1
				c0.3,28.4,22,52.5,50.4,53.9c30.5,1.5,55.8-22.8,55.8-53C1002.9,162.9,979.2,139.1,949.9,139.1z"/>
		</g>
	</g>
	
		<radialGradient id="SVGID_16_" cx="900.4401" cy="220.6979" r="152.2381" gradientTransform="matrix(1 0 0 -1 0 203.5406)" gradientUnits="userSpaceOnUse">
		<stop  offset="0.2843" style="stop-color:#FFFFFF"/>
		<stop  offset="0.3843" style="stop-color:#F6F6F5"/>
		<stop  offset="0.4594" style="stop-color:#E4E3E3"/>
		<stop  offset="0.5263" style="stop-color:#CDCBCB"/>
		<stop  offset="0.5885" style="stop-color:#AEABAB"/>
		<stop  offset="0.6475" style="stop-color:#8B8888"/>
		<stop  offset="0.7039" style="stop-color:#656262"/>
		<stop  offset="0.7584" style="stop-color:#403E3E"/>
		<stop  offset="0.8101" style="stop-color:#181818"/>
		<stop  offset="0.8294" style="stop-color:#010101"/>
	</radialGradient>
	<path class="st19" d="M947.1,106.2c31.5,1.6,57.4-24.3,55.8-55.8c-1.4-27-23.3-48.9-50.3-50.3c-31.5-1.6-57.4,24.3-55.8,55.8
		C898.2,83,920.1,104.9,947.1,106.2z"/>
	
		<radialGradient id="SVGID_17_" cx="761.5607" cy="81.5591" r="152.2381" gradientTransform="matrix(1 0 0 -1 0 203.5406)" gradientUnits="userSpaceOnUse">
		<stop  offset="0.2843" style="stop-color:#FFFFFF"/>
		<stop  offset="0.3843" style="stop-color:#F6F6F5"/>
		<stop  offset="0.4594" style="stop-color:#E4E3E3"/>
		<stop  offset="0.5263" style="stop-color:#CDCBCB"/>
		<stop  offset="0.5885" style="stop-color:#AEABAB"/>
		<stop  offset="0.6475" style="stop-color:#8B8888"/>
		<stop  offset="0.7039" style="stop-color:#656262"/>
		<stop  offset="0.7584" style="stop-color:#403E3E"/>
		<stop  offset="0.8101" style="stop-color:#181818"/>
		<stop  offset="0.8294" style="stop-color:#010101"/>
	</radialGradient>
	<path class="st20" d="M808.2,245.4c31.5,1.6,57.4-24.3,55.8-55.8c-1.4-27-23.3-48.9-50.3-50.3c-31.5-1.6-57.4,24.3-55.8,55.8
		C759.3,222.1,781.2,244,808.2,245.4z"/>
	
		<radialGradient id="SVGID_18_" cx="900.4401" cy="81.5591" r="152.2381" gradientTransform="matrix(1 0 0 -1 0 203.5406)" gradientUnits="userSpaceOnUse">
		<stop  offset="0.2843" style="stop-color:#FFFFFF"/>
		<stop  offset="0.3843" style="stop-color:#F6F6F5"/>
		<stop  offset="0.4594" style="stop-color:#E4E3E3"/>
		<stop  offset="0.5263" style="stop-color:#CDCBCB"/>
		<stop  offset="0.5885" style="stop-color:#AEABAB"/>
		<stop  offset="0.6475" style="stop-color:#8B8888"/>
		<stop  offset="0.7039" style="stop-color:#656262"/>
		<stop  offset="0.7584" style="stop-color:#403E3E"/>
		<stop  offset="0.8101" style="stop-color:#181818"/>
		<stop  offset="0.8294" style="stop-color:#010101"/>
	</radialGradient>
	<path class="st21" d="M947.1,245.4c31.5,1.6,57.4-24.3,55.8-55.8c-1.4-27-23.3-48.9-50.3-50.3c-31.5-1.6-57.4,24.3-55.8,55.8
		C898.2,222.1,920.1,244,947.1,245.4z"/>
	
		<radialGradient id="SVGID_19_" cx="761.5607" cy="220.6979" r="152.2381" gradientTransform="matrix(1 0 0 -1 0 203.5406)" gradientUnits="userSpaceOnUse">
		<stop  offset="0.2843" style="stop-color:#FFFFFF"/>
		<stop  offset="0.3843" style="stop-color:#F6F6F5"/>
		<stop  offset="0.4594" style="stop-color:#E4E3E3"/>
		<stop  offset="0.5263" style="stop-color:#CDCBCB"/>
		<stop  offset="0.5885" style="stop-color:#AEABAB"/>
		<stop  offset="0.6475" style="stop-color:#8B8888"/>
		<stop  offset="0.7039" style="stop-color:#656262"/>
		<stop  offset="0.7584" style="stop-color:#403E3E"/>
		<stop  offset="0.8101" style="stop-color:#181818"/>
		<stop  offset="0.8294" style="stop-color:#010101"/>
	</radialGradient>
	<path class="st22" d="M808.2,106.2c31.5,1.6,57.4-24.3,55.8-55.8c-1.4-27-23.3-48.9-50.3-50.3c-31.5-1.6-57.4,24.3-55.8,55.8
		C759.3,83,781.2,104.9,808.2,106.2z"/>
	
		<radialGradient id="SVGID_20_" cx="897.7506" cy="58.132" r="69.446" fx="893.5458" fy="58.4831" gradientTransform="matrix(1 0 0 -1 0 203.5406)" gradientUnits="userSpaceOnUse">
		<stop  offset="0" style="stop-color:#FFFFFF"/>
		<stop  offset="0.1835" style="stop-color:#F6F6F5"/>
		<stop  offset="0.3212" style="stop-color:#E4E3E3"/>
		<stop  offset="0.444" style="stop-color:#CDCBCB"/>
		<stop  offset="0.5581" style="stop-color:#AEABAB"/>
		<stop  offset="0.6662" style="stop-color:#8B8888"/>
		<stop  offset="0.7698" style="stop-color:#656262"/>
		<stop  offset="0.8698" style="stop-color:#403E3E"/>
		<stop  offset="0.9646" style="stop-color:#181818"/>
		<stop  offset="1" style="stop-color:#010101"/>
	</radialGradient>
	<path class="st23" d="M952.6,139.4c-30.4-1.5-55.6,22.5-55.8,52.6c0-0.2,0-0.4,0-0.5c-0.2-23.5-9.9-44.8-25.4-60.2
		s-36.8-24.9-60.4-24.9c28.5,0,51.7-22.4,53-50.5c0,0.7,0,1.3,0.1,2c2.4,45.3,39.9,81.3,85.8,81.3L952.6,139.4z"/>
</g>
</svg>
